<svg xmlns="http://www.w3.org/2000/svg" fill="none" viewBox="0 0 720 720">
  <g stroke="#000" stroke-linecap="round" stroke-linejoin="round" stroke-miterlimit="1.5">
    <path fill="#ebebeb" stroke-width="11.1177" d="M615.3173 184.1872c49.259 0 89.192-39.907 89.192-89.134 0-49.227-39.933-89.1337-89.192-89.1337-49.259 0-89.191 39.9067-89.191 89.1337 0 49.227 39.932 89.134 89.191 89.134z"/>
    <path fill="#000" stroke-width="11.1177" d="M640.8823 141.5952c25.721 0 46.572-20.838 46.572-46.542s-20.851-46.541-46.572-46.541c-25.72 0-46.571 20.837-46.571 46.541 0 25.704 20.851 46.542 46.571 46.542z"/>
    <path fill="#7ec242" stroke-width="11.0519" d="M90.5263 633.0932c114.751 112.105 319.746 88.519 457.869-52.682 138.124-141.2 157.071-346.545 42.32-458.65-114.751-112.1046-319.746-88.518-457.869 52.682-138.123 141.2-157.0705 346.545-42.32 458.65Z"/>
    <path fill="#ebebeb" stroke-width="11.1177" d="M388.1083 184.1872c49.259 0 89.191-39.907 89.191-89.134 0-49.227-39.932-89.1337-89.191-89.1337-49.26 0-89.192 39.9067-89.192 89.1337 0 49.227 39.932 89.134 89.192 89.134z"/>
    <path fill="#c1e961" fill-rule="evenodd" stroke-width="11.0519" d="M247.7063 702.7212c-4.31-86.808 51.959-194.422 152.611-274.821 86.465-69.069 185.324-101.787 264.585-94.844-6.017 85.168-45.511 174.78-116.506 247.356-86.754 88.687-200.027 130.959-300.69 122.309Z" clip-rule="evenodd"/>
    <path fill="#c1e961" fill-rule="evenodd" stroke-width="11.0519" d="M247.7063 702.7212c-4.31-86.808 51.959-194.422 152.611-274.821 86.465-69.069 185.324-101.787 264.585-94.844-6.017 85.168-45.511 174.78-116.506 247.356-86.754 88.687-200.027 130.959-300.69 122.309Z" clip-rule="evenodd"/>
    <path fill="#000" stroke-width="11.1177" d="M373.0583 120.7332c25.721 0 46.572-20.837 46.572-46.541 0-25.705-20.851-46.542-46.572-46.542-25.721 0-46.571 20.837-46.571 46.542 0 25.704 20.85 46.541 46.571 46.541z"/>
    <path fill="#7ec242" fill-rule="evenodd" stroke-width="11.1615" d="M316.2563 383.3142c1.165.733 1.988 1.903 2.288 3.248.296 1.343.041 2.748-.709 3.906-22.758 35.119-175.404 270.668-197.891 305.366-1.532 2.364-4.683 3.058-7.068 1.557-15.129-9.518-65.814-41.407-81.119-51.037a5.127 5.127 0 0 1-2.282-3.249c-.296-1.343-.045-2.75.706-3.902 22.759-35.12 175.407-270.672 197.891-305.367 1.528-2.366 4.679-3.06 7.065-1.559z" clip-rule="evenodd"/>
    <path fill="#7ec242" fill-rule="evenodd" stroke-width="10.9046" d="M350.5763 417.2652a5.1699 5.1699 0 0 1 4.405-1.389c1.605.26 2.991 1.256 3.742 2.695 18.761 35.852 114.931 219.66 150.74 288.1 1.16 2.213.562 4.936-1.415 6.458-1.977 1.526-4.765 1.417-6.611-.264-56.148-51.02-204.744-186.048-231.194-210.085-1.052-.952-1.662-2.304-1.683-3.723a5.1174 5.1174 0 0 1 1.562-3.777c14.437-13.998 64.469-62.515 80.454-78.015z" clip-rule="evenodd"/>
    <path fill="#000" fill-rule="evenodd" stroke-width="11.0519" d="M665.2843 293.9602c-22.194 10.509-49.945 16.906-79.882 16.906-64.257.002-118.445-29.474-129.212-65.783 32.301 12.101 79.078 21.926 129.21 21.925 26.899 0 52.832-2.827 76.083-7.319 1.926 11.235 3.189 22.678 3.801 34.271z" clip-rule="evenodd"/>
  </g>
</svg>
