<svg xmlns="http://www.w3.org/2000/svg" fill="none" viewBox="125 75 715 980">
  <path fill="#EBEBEB" stroke="#000" stroke-linecap="round" stroke-linejoin="round" stroke-miterlimit="1.5" stroke-width="11.118" d="M732.794 265.451c49.259 0 89.192-39.907 89.192-89.134 0-49.227-39.933-89.134-89.192-89.134-49.259 0-89.191 39.907-89.191 89.134 0 49.227 39.932 89.134 89.191 89.134Z"/>
  <path fill="#000" stroke="#000" stroke-linecap="round" stroke-linejoin="round" stroke-miterlimit="1.5" stroke-width="11.118" d="M758.359 222.859c25.721 0 46.572-20.838 46.572-46.542s-20.851-46.541-46.572-46.541c-25.721 0-46.571 20.837-46.571 46.541 0 25.704 20.85 46.542 46.571 46.542Z"/>
  <path fill="#7EC242" stroke="#000" stroke-linecap="round" stroke-linejoin="round" stroke-miterlimit="1.5" stroke-width="11.052" d="M208.003 714.357c114.751 112.105 319.746 88.519 457.869-52.682 138.124-141.2 157.071-346.545 42.32-458.65-114.751-112.105-319.746-88.518-457.869 52.682-138.123 141.2-157.07 346.545-42.32 458.65Z"/>
  <path fill="#EBEBEB" stroke="#000" stroke-linecap="round" stroke-linejoin="round" stroke-miterlimit="1.5" stroke-width="11.118" d="M505.585 265.451c49.259 0 89.191-39.907 89.191-89.134 0-49.227-39.932-89.134-89.191-89.134-49.26 0-89.192 39.907-89.192 89.134 0 49.227 39.932 89.134 89.192 89.134Z"/>
  <path fill="#C1E961" fill-rule="evenodd" stroke="#000" stroke-linecap="round" stroke-linejoin="round" stroke-miterlimit="1.5" stroke-width="11.052" d="M365.183 783.985c-4.31-86.808 51.959-194.422 152.611-274.821 86.465-69.069 185.324-101.787 264.585-94.843-6.017 85.167-45.511 174.779-116.506 247.355-86.754 88.687-200.027 130.959-300.69 122.309Z" clip-rule="evenodd"/>
  <path fill="#C1E961" fill-rule="evenodd" stroke="#000" stroke-linecap="round" stroke-linejoin="round" stroke-miterlimit="1.5" stroke-width="11.052" d="M365.183 783.985c-4.31-86.808 51.959-194.422 152.611-274.821 86.465-69.069 185.324-101.787 264.585-94.843-6.017 85.167-45.511 174.779-116.506 247.355-86.754 88.687-200.027 130.959-300.69 122.309Z" clip-rule="evenodd"/>
  <path fill="#000" stroke="#000" stroke-linecap="round" stroke-linejoin="round" stroke-miterlimit="1.5" stroke-width="11.118" d="M490.535 201.997c25.721 0 46.572-20.837 46.572-46.541 0-25.705-20.851-46.542-46.572-46.542-25.721 0-46.571 20.837-46.571 46.542 0 25.704 20.85 46.541 46.571 46.541Z"/>
  <path fill="#7EC242" fill-rule="evenodd" stroke="#000" stroke-linecap="round" stroke-linejoin="round" stroke-miterlimit="1.5" stroke-width="11.162" d="M433.733 464.578a5.164 5.164 0 0 1 2.288 3.248 5.145 5.145 0 0 1-.709 3.906L237.421 777.098a5.154 5.154 0 0 1-7.068 1.557l-81.119-51.037a5.127 5.127 0 0 1-2.282-3.249 5.124 5.124 0 0 1 .706-3.902L345.549 415.1a5.148 5.148 0 0 1 7.065-1.559l81.119 51.037Z" clip-rule="evenodd"/>
  <path fill="#7EC242" fill-rule="evenodd" stroke="#000" stroke-linecap="round" stroke-linejoin="round" stroke-miterlimit="1.5" stroke-width="10.905" d="M468.053 498.529a5.17 5.17 0 0 1 4.405-1.389 5.142 5.142 0 0 1 3.742 2.695c18.761 35.852 114.931 219.66 150.74 288.1a5.138 5.138 0 0 1-1.415 6.458 5.148 5.148 0 0 1-6.611-.264A9794796.706 9794796.706 0 0 1 387.72 584.044a5.128 5.128 0 0 1-1.683-3.723 5.117 5.117 0 0 1 1.562-3.777l80.454-78.015Z" clip-rule="evenodd"/>
  <path fill="#000" fill-rule="evenodd" stroke="#000" stroke-linecap="round" stroke-linejoin="round" stroke-miterlimit="1.5" stroke-width="11.052" d="M782.761 375.224c-22.194 10.509-49.945 16.906-79.882 16.906-64.257.002-118.445-29.474-129.212-65.783 32.301 12.101 79.078 21.926 129.21 21.925 26.899 0 52.832-2.827 76.083-7.319 1.926 11.235 3.189 22.678 3.801 34.271Z" clip-rule="evenodd"/>
  <path fill="#000" d="M162.911 1041.89c-3.392 3.39-7.402 4.93-12.028 4.93s-8.636-1.54-12.028-4.93c-3.393-3.39-4.935-7.4-4.935-12.02V838.773c0-4.624 1.542-8.63 4.935-12.021 3.392-3.39 7.402-4.931 12.028-4.931s8.636 1.541 12.028 4.931c3.393 3.391 4.935 7.397 4.935 12.021v81.369l.308.308.617-.308 71.244-85.068c7.711-8.938 17.272-13.253 28.683-13.253h4.935c3.392 0 5.86 1.541 7.402 4.623 1.542 3.082.925 5.856-1.234 8.63l-79.263 92.774c-.925 1.541-1.234 2.773-.308 4.006l82.964 101.406c2.159 2.77 2.776 5.85 1.233 8.94-1.542 3.08-4.317 4.62-7.71 4.62h-4.935c-11.72 0-21.28-4.62-28.374-13.56l-74.637-94.008-.617-.309-.308.309v90.618c0 4.62-1.542 8.63-4.935 12.02Zm209.106-11.71-66.001-191.716c-1.542-4.006-.925-8.013 1.851-11.404 2.467-3.39 5.859-5.239 10.177-5.239h1.234c5.243 0 10.178 1.541 14.496 4.623 4.009 3.082 6.785 7.089 8.327 12.02l54.281 174.146.309.31.308-.31 54.281-174.146c1.543-4.931 4.627-8.938 8.945-12.02 4.009-3.082 8.635-4.623 13.878-4.623 4.318 0 7.711 1.849 10.486 5.239 2.468 3.391 3.085 7.398 1.543 11.404L420.13 1030.18c-1.542 4.93-4.626 8.93-8.635 12.02-4.318 3.08-9.253 4.62-14.496 4.62h-1.85c-5.244 0-9.87-1.54-14.188-4.62-4.317-3.09-7.402-7.09-8.944-12.02ZM562.31 852.951l-32.383 105.102c-.309.616 0 1.233.308 1.849 0 0 .925.617 1.542.617h61.684c.616 0 1.542-.617 1.542-.617.308-.616.616-1.233.308-1.849l-32.384-105.102-.308-.309-.309.309Zm-77.104 193.869c-4.318 0-7.71-1.85-10.178-5.24-2.775-3.39-3.392-7.4-1.85-11.4l66.001-191.716c1.542-4.931 4.626-8.938 8.944-12.02 4.318-3.082 8.944-4.623 14.187-4.623h1.851c5.243 0 10.178 1.541 14.496 4.623 4.009 3.082 7.093 7.089 8.635 12.02l66.001 191.716c1.543 4 .926 8.01-1.542 11.4-2.775 3.39-6.168 5.24-10.486 5.24h-1.233c-5.244 0-9.87-1.54-13.879-4.62-4.318-3.09-7.402-7.09-8.944-12.02l-12.337-40.689c-.308-1.541-1.234-2.466-3.393-2.466h-77.721c-1.85 0-3.084.925-3.392 2.466l-12.337 40.689c-1.542 4.93-4.318 8.93-8.327 12.02-4.318 3.08-9.253 4.62-14.496 4.62Zm229.155-4.93c-3.392 3.39-7.402 4.93-12.028 4.93s-8.636-1.54-12.028-4.93c-3.393-3.39-4.935-7.4-4.935-12.02V838.773c0-4.624 1.542-8.63 4.935-12.021 3.392-3.39 7.402-4.931 12.028-4.931s8.636 1.541 12.028 4.931c3.393 3.391 4.935 7.397 4.935 12.021v81.369l.308.308.617-.308 71.245-85.068c7.71-8.938 17.271-13.253 28.682-13.253h4.935c3.393 0 5.86 1.541 7.402 4.623 1.542 3.082.925 5.856-1.234 8.63l-79.263 92.774c-.925 1.541-1.233 2.773-.308 4.006l82.964 101.406c2.159 2.77 2.776 5.85 1.234 8.94-1.542 3.08-4.318 4.62-7.711 4.62h-4.934c-11.72 0-21.281-4.62-28.375-13.56l-74.637-94.008-.617-.309-.308.309v90.618c0 4.62-1.542 8.63-4.935 12.02Z"/>
</svg>
